<mxfile host="app.diagrams.net" agent="Mozilla/5.0 (Windows NT 10.0; Win64; x64) AppleWebKit/537.36 (KHTML, like Gecko) Chrome/133.0.0.0 Safari/537.36" version="26.0.16">
  <diagram id="C5RBs43oDa-KdzZeNtuy" name="Page-1">
    <mxGraphModel dx="934" dy="580" grid="0" gridSize="10" guides="1" tooltips="1" connect="1" arrows="1" fold="1" page="0" pageScale="1" pageWidth="827" pageHeight="1169" math="0" shadow="0">
      <root>
        <mxCell id="WIyWlLk6GJQsqaUBKTNV-0" />
        <mxCell id="WIyWlLk6GJQsqaUBKTNV-1" parent="WIyWlLk6GJQsqaUBKTNV-0" />
        <mxCell id="njpOqQqMFgtQJ2qNlqnj-25" value="" style="edgeStyle=orthogonalEdgeStyle;rounded=0;orthogonalLoop=1;jettySize=auto;html=1;" edge="1" parent="WIyWlLk6GJQsqaUBKTNV-1" source="njpOqQqMFgtQJ2qNlqnj-0" target="njpOqQqMFgtQJ2qNlqnj-24">
          <mxGeometry relative="1" as="geometry" />
        </mxCell>
        <mxCell id="njpOqQqMFgtQJ2qNlqnj-0" value="Start" style="strokeWidth=2;html=1;shape=mxgraph.flowchart.start_1;whiteSpace=wrap;" vertex="1" parent="WIyWlLk6GJQsqaUBKTNV-1">
          <mxGeometry x="280" y="160" width="80" height="40" as="geometry" />
        </mxCell>
        <mxCell id="njpOqQqMFgtQJ2qNlqnj-23" value="" style="edgeStyle=orthogonalEdgeStyle;rounded=0;orthogonalLoop=1;jettySize=auto;html=1;" edge="1" parent="WIyWlLk6GJQsqaUBKTNV-1" source="njpOqQqMFgtQJ2qNlqnj-21" target="njpOqQqMFgtQJ2qNlqnj-22">
          <mxGeometry relative="1" as="geometry" />
        </mxCell>
        <mxCell id="njpOqQqMFgtQJ2qNlqnj-44" value="" style="edgeStyle=orthogonalEdgeStyle;rounded=0;orthogonalLoop=1;jettySize=auto;html=1;" edge="1" parent="WIyWlLk6GJQsqaUBKTNV-1" source="njpOqQqMFgtQJ2qNlqnj-21" target="njpOqQqMFgtQJ2qNlqnj-43">
          <mxGeometry relative="1" as="geometry" />
        </mxCell>
        <mxCell id="njpOqQqMFgtQJ2qNlqnj-21" value="PIN == 6047&lt;div&gt;Verifikasi == True&lt;/div&gt;" style="strokeWidth=2;html=1;shape=mxgraph.flowchart.decision;whiteSpace=wrap;" vertex="1" parent="WIyWlLk6GJQsqaUBKTNV-1">
          <mxGeometry x="520" y="315" width="130" height="80" as="geometry" />
        </mxCell>
        <mxCell id="njpOqQqMFgtQJ2qNlqnj-36" style="edgeStyle=orthogonalEdgeStyle;rounded=0;orthogonalLoop=1;jettySize=auto;html=1;exitX=0.5;exitY=0;exitDx=0;exitDy=0;entryX=1;entryY=0.5;entryDx=0;entryDy=0;" edge="1" parent="WIyWlLk6GJQsqaUBKTNV-1" source="njpOqQqMFgtQJ2qNlqnj-22" target="njpOqQqMFgtQJ2qNlqnj-24">
          <mxGeometry relative="1" as="geometry" />
        </mxCell>
        <mxCell id="njpOqQqMFgtQJ2qNlqnj-22" value="kesempatan =+ 1" style="rounded=1;whiteSpace=wrap;html=1;absoluteArcSize=1;arcSize=14;strokeWidth=2;" vertex="1" parent="WIyWlLk6GJQsqaUBKTNV-1">
          <mxGeometry x="720" y="335" width="80" height="40" as="geometry" />
        </mxCell>
        <mxCell id="njpOqQqMFgtQJ2qNlqnj-27" value="" style="edgeStyle=orthogonalEdgeStyle;rounded=0;orthogonalLoop=1;jettySize=auto;html=1;" edge="1" parent="WIyWlLk6GJQsqaUBKTNV-1" source="njpOqQqMFgtQJ2qNlqnj-24" target="njpOqQqMFgtQJ2qNlqnj-26">
          <mxGeometry relative="1" as="geometry" />
        </mxCell>
        <mxCell id="njpOqQqMFgtQJ2qNlqnj-24" value="kesempatan == 0" style="rounded=1;whiteSpace=wrap;html=1;absoluteArcSize=1;arcSize=14;strokeWidth=2;" vertex="1" parent="WIyWlLk6GJQsqaUBKTNV-1">
          <mxGeometry x="280" y="240" width="80" height="40" as="geometry" />
        </mxCell>
        <mxCell id="njpOqQqMFgtQJ2qNlqnj-29" value="" style="edgeStyle=orthogonalEdgeStyle;rounded=0;orthogonalLoop=1;jettySize=auto;html=1;" edge="1" parent="WIyWlLk6GJQsqaUBKTNV-1" source="njpOqQqMFgtQJ2qNlqnj-26" target="njpOqQqMFgtQJ2qNlqnj-28">
          <mxGeometry relative="1" as="geometry" />
        </mxCell>
        <mxCell id="njpOqQqMFgtQJ2qNlqnj-39" value="" style="edgeStyle=orthogonalEdgeStyle;rounded=0;orthogonalLoop=1;jettySize=auto;html=1;" edge="1" parent="WIyWlLk6GJQsqaUBKTNV-1" source="njpOqQqMFgtQJ2qNlqnj-26" target="njpOqQqMFgtQJ2qNlqnj-38">
          <mxGeometry relative="1" as="geometry" />
        </mxCell>
        <mxCell id="njpOqQqMFgtQJ2qNlqnj-26" value="kesempatan &amp;gt; 3" style="strokeWidth=2;html=1;shape=mxgraph.flowchart.decision;whiteSpace=wrap;" vertex="1" parent="WIyWlLk6GJQsqaUBKTNV-1">
          <mxGeometry x="270" y="320" width="100" height="70" as="geometry" />
        </mxCell>
        <mxCell id="njpOqQqMFgtQJ2qNlqnj-28" value="End" style="strokeWidth=2;html=1;shape=mxgraph.flowchart.start_1;whiteSpace=wrap;" vertex="1" parent="WIyWlLk6GJQsqaUBKTNV-1">
          <mxGeometry x="280" y="440" width="80" height="40" as="geometry" />
        </mxCell>
        <mxCell id="njpOqQqMFgtQJ2qNlqnj-30" value="True" style="text;html=1;align=center;verticalAlign=middle;whiteSpace=wrap;rounded=0;" vertex="1" parent="WIyWlLk6GJQsqaUBKTNV-1">
          <mxGeometry x="270" y="390" width="60" height="30" as="geometry" />
        </mxCell>
        <mxCell id="njpOqQqMFgtQJ2qNlqnj-35" value="False" style="text;html=1;align=center;verticalAlign=middle;whiteSpace=wrap;rounded=0;" vertex="1" parent="WIyWlLk6GJQsqaUBKTNV-1">
          <mxGeometry x="360" y="330" width="60" height="30" as="geometry" />
        </mxCell>
        <mxCell id="njpOqQqMFgtQJ2qNlqnj-40" value="" style="edgeStyle=orthogonalEdgeStyle;rounded=0;orthogonalLoop=1;jettySize=auto;html=1;" edge="1" parent="WIyWlLk6GJQsqaUBKTNV-1" source="njpOqQqMFgtQJ2qNlqnj-38" target="njpOqQqMFgtQJ2qNlqnj-21">
          <mxGeometry relative="1" as="geometry" />
        </mxCell>
        <mxCell id="njpOqQqMFgtQJ2qNlqnj-38" value="Input PIN" style="shape=parallelogram;html=1;strokeWidth=2;perimeter=parallelogramPerimeter;whiteSpace=wrap;rounded=1;arcSize=12;size=0.23;" vertex="1" parent="WIyWlLk6GJQsqaUBKTNV-1">
          <mxGeometry x="414" y="335" width="86" height="40" as="geometry" />
        </mxCell>
        <mxCell id="njpOqQqMFgtQJ2qNlqnj-41" value="False" style="text;html=1;align=center;verticalAlign=middle;whiteSpace=wrap;rounded=0;" vertex="1" parent="WIyWlLk6GJQsqaUBKTNV-1">
          <mxGeometry x="650" y="330" width="60" height="30" as="geometry" />
        </mxCell>
        <mxCell id="njpOqQqMFgtQJ2qNlqnj-43" value="Main()" style="shape=process;whiteSpace=wrap;html=1;backgroundOutline=1;" vertex="1" parent="WIyWlLk6GJQsqaUBKTNV-1">
          <mxGeometry x="545" y="440" width="80" height="40" as="geometry" />
        </mxCell>
        <mxCell id="njpOqQqMFgtQJ2qNlqnj-47" value="" style="edgeStyle=orthogonalEdgeStyle;rounded=0;orthogonalLoop=1;jettySize=auto;html=1;" edge="1" parent="WIyWlLk6GJQsqaUBKTNV-1" source="njpOqQqMFgtQJ2qNlqnj-45" target="njpOqQqMFgtQJ2qNlqnj-46">
          <mxGeometry relative="1" as="geometry" />
        </mxCell>
        <mxCell id="njpOqQqMFgtQJ2qNlqnj-45" value="Main()" style="strokeWidth=2;html=1;shape=mxgraph.flowchart.start_1;whiteSpace=wrap;" vertex="1" parent="WIyWlLk6GJQsqaUBKTNV-1">
          <mxGeometry x="80" y="600" width="80" height="40" as="geometry" />
        </mxCell>
        <mxCell id="njpOqQqMFgtQJ2qNlqnj-49" value="" style="edgeStyle=orthogonalEdgeStyle;rounded=0;orthogonalLoop=1;jettySize=auto;html=1;" edge="1" parent="WIyWlLk6GJQsqaUBKTNV-1" source="njpOqQqMFgtQJ2qNlqnj-46" target="njpOqQqMFgtQJ2qNlqnj-48">
          <mxGeometry relative="1" as="geometry" />
        </mxCell>
        <mxCell id="njpOqQqMFgtQJ2qNlqnj-46" value="Menu ATM&lt;div&gt;1. Setor Tunai&lt;/div&gt;&lt;div&gt;2. Cek Saldo&lt;/div&gt;&lt;div&gt;3. Tarik Tunai&lt;/div&gt;&lt;div&gt;4. Keluar&lt;/div&gt;" style="shape=parallelogram;html=1;strokeWidth=2;perimeter=parallelogramPerimeter;whiteSpace=wrap;rounded=1;arcSize=12;size=0.23;" vertex="1" parent="WIyWlLk6GJQsqaUBKTNV-1">
          <mxGeometry x="65" y="680" width="110" height="70" as="geometry" />
        </mxCell>
        <mxCell id="njpOqQqMFgtQJ2qNlqnj-51" value="" style="edgeStyle=orthogonalEdgeStyle;rounded=0;orthogonalLoop=1;jettySize=auto;html=1;" edge="1" parent="WIyWlLk6GJQsqaUBKTNV-1" source="njpOqQqMFgtQJ2qNlqnj-48" target="njpOqQqMFgtQJ2qNlqnj-50">
          <mxGeometry relative="1" as="geometry" />
        </mxCell>
        <mxCell id="njpOqQqMFgtQJ2qNlqnj-48" value="Input pilihan menu" style="shape=parallelogram;html=1;strokeWidth=2;perimeter=parallelogramPerimeter;whiteSpace=wrap;rounded=1;arcSize=12;size=0.23;" vertex="1" parent="WIyWlLk6GJQsqaUBKTNV-1">
          <mxGeometry x="72.5" y="800" width="95" height="50" as="geometry" />
        </mxCell>
        <mxCell id="njpOqQqMFgtQJ2qNlqnj-57" value="" style="edgeStyle=orthogonalEdgeStyle;rounded=0;orthogonalLoop=1;jettySize=auto;html=1;" edge="1" parent="WIyWlLk6GJQsqaUBKTNV-1" source="njpOqQqMFgtQJ2qNlqnj-50" target="njpOqQqMFgtQJ2qNlqnj-56">
          <mxGeometry relative="1" as="geometry" />
        </mxCell>
        <mxCell id="njpOqQqMFgtQJ2qNlqnj-165" value="" style="edgeStyle=orthogonalEdgeStyle;rounded=0;orthogonalLoop=1;jettySize=auto;html=1;" edge="1" parent="WIyWlLk6GJQsqaUBKTNV-1" source="njpOqQqMFgtQJ2qNlqnj-50" target="njpOqQqMFgtQJ2qNlqnj-164">
          <mxGeometry relative="1" as="geometry" />
        </mxCell>
        <mxCell id="njpOqQqMFgtQJ2qNlqnj-50" value="pilihan == 1" style="strokeWidth=2;html=1;shape=mxgraph.flowchart.decision;whiteSpace=wrap;" vertex="1" parent="WIyWlLk6GJQsqaUBKTNV-1">
          <mxGeometry x="75" y="880" width="90" height="60" as="geometry" />
        </mxCell>
        <mxCell id="njpOqQqMFgtQJ2qNlqnj-52" value="True" style="text;html=1;align=center;verticalAlign=middle;whiteSpace=wrap;rounded=0;" vertex="1" parent="WIyWlLk6GJQsqaUBKTNV-1">
          <mxGeometry x="530" y="390" width="60" height="30" as="geometry" />
        </mxCell>
        <mxCell id="njpOqQqMFgtQJ2qNlqnj-53" style="edgeStyle=orthogonalEdgeStyle;rounded=0;orthogonalLoop=1;jettySize=auto;html=1;exitX=0;exitY=0.5;exitDx=0;exitDy=0;entryX=1;entryY=0.5;entryDx=0;entryDy=0;entryPerimeter=0;" edge="1" parent="WIyWlLk6GJQsqaUBKTNV-1" source="njpOqQqMFgtQJ2qNlqnj-43" target="njpOqQqMFgtQJ2qNlqnj-28">
          <mxGeometry relative="1" as="geometry" />
        </mxCell>
        <mxCell id="njpOqQqMFgtQJ2qNlqnj-65" value="" style="edgeStyle=orthogonalEdgeStyle;rounded=0;orthogonalLoop=1;jettySize=auto;html=1;" edge="1" parent="WIyWlLk6GJQsqaUBKTNV-1" source="njpOqQqMFgtQJ2qNlqnj-56" target="njpOqQqMFgtQJ2qNlqnj-64">
          <mxGeometry relative="1" as="geometry" />
        </mxCell>
        <mxCell id="njpOqQqMFgtQJ2qNlqnj-67" value="" style="edgeStyle=orthogonalEdgeStyle;rounded=0;orthogonalLoop=1;jettySize=auto;html=1;" edge="1" parent="WIyWlLk6GJQsqaUBKTNV-1" source="njpOqQqMFgtQJ2qNlqnj-56" target="njpOqQqMFgtQJ2qNlqnj-66">
          <mxGeometry relative="1" as="geometry" />
        </mxCell>
        <mxCell id="njpOqQqMFgtQJ2qNlqnj-56" value="pilihan == 2" style="strokeWidth=2;html=1;shape=mxgraph.flowchart.decision;whiteSpace=wrap;" vertex="1" parent="WIyWlLk6GJQsqaUBKTNV-1">
          <mxGeometry x="280" y="880" width="90" height="60" as="geometry" />
        </mxCell>
        <mxCell id="njpOqQqMFgtQJ2qNlqnj-169" style="edgeStyle=orthogonalEdgeStyle;rounded=0;orthogonalLoop=1;jettySize=auto;html=1;exitX=0.5;exitY=1;exitDx=0;exitDy=0;entryX=0;entryY=0.5;entryDx=0;entryDy=0;" edge="1" parent="WIyWlLk6GJQsqaUBKTNV-1" source="njpOqQqMFgtQJ2qNlqnj-64" target="njpOqQqMFgtQJ2qNlqnj-46">
          <mxGeometry relative="1" as="geometry">
            <Array as="points">
              <mxPoint x="325" y="1110" />
              <mxPoint x="40" y="1110" />
              <mxPoint x="40" y="715" />
            </Array>
          </mxGeometry>
        </mxCell>
        <mxCell id="njpOqQqMFgtQJ2qNlqnj-64" value="Saldo saat ini" style="shape=parallelogram;html=1;strokeWidth=2;perimeter=parallelogramPerimeter;whiteSpace=wrap;rounded=1;arcSize=12;size=0.23;" vertex="1" parent="WIyWlLk6GJQsqaUBKTNV-1">
          <mxGeometry x="272.5" y="1000" width="105" height="40" as="geometry" />
        </mxCell>
        <mxCell id="njpOqQqMFgtQJ2qNlqnj-77" value="" style="edgeStyle=orthogonalEdgeStyle;rounded=0;orthogonalLoop=1;jettySize=auto;html=1;" edge="1" parent="WIyWlLk6GJQsqaUBKTNV-1" source="njpOqQqMFgtQJ2qNlqnj-66" target="njpOqQqMFgtQJ2qNlqnj-76">
          <mxGeometry relative="1" as="geometry" />
        </mxCell>
        <mxCell id="njpOqQqMFgtQJ2qNlqnj-167" value="" style="edgeStyle=orthogonalEdgeStyle;rounded=0;orthogonalLoop=1;jettySize=auto;html=1;" edge="1" parent="WIyWlLk6GJQsqaUBKTNV-1" source="njpOqQqMFgtQJ2qNlqnj-66" target="njpOqQqMFgtQJ2qNlqnj-166">
          <mxGeometry relative="1" as="geometry" />
        </mxCell>
        <mxCell id="njpOqQqMFgtQJ2qNlqnj-66" value="pilihan == 3" style="strokeWidth=2;html=1;shape=mxgraph.flowchart.decision;whiteSpace=wrap;" vertex="1" parent="WIyWlLk6GJQsqaUBKTNV-1">
          <mxGeometry x="480" y="880" width="90" height="60" as="geometry" />
        </mxCell>
        <mxCell id="njpOqQqMFgtQJ2qNlqnj-71" value="" style="edgeStyle=orthogonalEdgeStyle;rounded=0;orthogonalLoop=1;jettySize=auto;html=1;" edge="1" parent="WIyWlLk6GJQsqaUBKTNV-1" source="njpOqQqMFgtQJ2qNlqnj-68" target="njpOqQqMFgtQJ2qNlqnj-70">
          <mxGeometry relative="1" as="geometry" />
        </mxCell>
        <mxCell id="njpOqQqMFgtQJ2qNlqnj-68" value="Input tarik" style="shape=parallelogram;html=1;strokeWidth=2;perimeter=parallelogramPerimeter;whiteSpace=wrap;rounded=1;arcSize=12;size=0.23;" vertex="1" parent="WIyWlLk6GJQsqaUBKTNV-1">
          <mxGeometry x="1360" y="210" width="95" height="40" as="geometry" />
        </mxCell>
        <mxCell id="njpOqQqMFgtQJ2qNlqnj-73" value="" style="edgeStyle=orthogonalEdgeStyle;rounded=0;orthogonalLoop=1;jettySize=auto;html=1;" edge="1" parent="WIyWlLk6GJQsqaUBKTNV-1" source="njpOqQqMFgtQJ2qNlqnj-70" target="njpOqQqMFgtQJ2qNlqnj-72">
          <mxGeometry relative="1" as="geometry" />
        </mxCell>
        <mxCell id="njpOqQqMFgtQJ2qNlqnj-178" value="" style="edgeStyle=orthogonalEdgeStyle;rounded=0;orthogonalLoop=1;jettySize=auto;html=1;" edge="1" parent="WIyWlLk6GJQsqaUBKTNV-1" source="njpOqQqMFgtQJ2qNlqnj-70" target="njpOqQqMFgtQJ2qNlqnj-177">
          <mxGeometry relative="1" as="geometry" />
        </mxCell>
        <mxCell id="njpOqQqMFgtQJ2qNlqnj-70" value="tarik &amp;gt; 0 &amp;amp;&amp;amp; tarik &amp;lt; saldo" style="strokeWidth=2;html=1;shape=mxgraph.flowchart.decision;whiteSpace=wrap;" vertex="1" parent="WIyWlLk6GJQsqaUBKTNV-1">
          <mxGeometry x="1330" y="290" width="155" height="80" as="geometry" />
        </mxCell>
        <mxCell id="njpOqQqMFgtQJ2qNlqnj-75" value="" style="edgeStyle=orthogonalEdgeStyle;rounded=0;orthogonalLoop=1;jettySize=auto;html=1;" edge="1" parent="WIyWlLk6GJQsqaUBKTNV-1" source="njpOqQqMFgtQJ2qNlqnj-72" target="njpOqQqMFgtQJ2qNlqnj-74">
          <mxGeometry relative="1" as="geometry" />
        </mxCell>
        <mxCell id="njpOqQqMFgtQJ2qNlqnj-72" value="saldo -= tarik" style="rounded=1;whiteSpace=wrap;html=1;absoluteArcSize=1;arcSize=14;strokeWidth=2;" vertex="1" parent="WIyWlLk6GJQsqaUBKTNV-1">
          <mxGeometry x="1365" y="410" width="85" height="40" as="geometry" />
        </mxCell>
        <mxCell id="njpOqQqMFgtQJ2qNlqnj-161" value="" style="edgeStyle=orthogonalEdgeStyle;rounded=0;orthogonalLoop=1;jettySize=auto;html=1;" edge="1" parent="WIyWlLk6GJQsqaUBKTNV-1" source="njpOqQqMFgtQJ2qNlqnj-74" target="njpOqQqMFgtQJ2qNlqnj-160">
          <mxGeometry relative="1" as="geometry" />
        </mxCell>
        <mxCell id="njpOqQqMFgtQJ2qNlqnj-74" value="Saldo saat ini" style="shape=parallelogram;html=1;strokeWidth=2;perimeter=parallelogramPerimeter;whiteSpace=wrap;rounded=1;arcSize=12;size=0.23;" vertex="1" parent="WIyWlLk6GJQsqaUBKTNV-1">
          <mxGeometry x="1355" y="490" width="105" height="40" as="geometry" />
        </mxCell>
        <mxCell id="njpOqQqMFgtQJ2qNlqnj-79" value="" style="edgeStyle=orthogonalEdgeStyle;rounded=0;orthogonalLoop=1;jettySize=auto;html=1;" edge="1" parent="WIyWlLk6GJQsqaUBKTNV-1" source="njpOqQqMFgtQJ2qNlqnj-76" target="njpOqQqMFgtQJ2qNlqnj-78">
          <mxGeometry relative="1" as="geometry" />
        </mxCell>
        <mxCell id="njpOqQqMFgtQJ2qNlqnj-76" value="pilihan == 4" style="strokeWidth=2;html=1;shape=mxgraph.flowchart.decision;whiteSpace=wrap;" vertex="1" parent="WIyWlLk6GJQsqaUBKTNV-1">
          <mxGeometry x="680" y="880" width="90" height="60" as="geometry" />
        </mxCell>
        <mxCell id="njpOqQqMFgtQJ2qNlqnj-78" value="Return" style="strokeWidth=2;html=1;shape=mxgraph.flowchart.start_1;whiteSpace=wrap;" vertex="1" parent="WIyWlLk6GJQsqaUBKTNV-1">
          <mxGeometry x="685" y="960" width="80" height="40" as="geometry" />
        </mxCell>
        <mxCell id="njpOqQqMFgtQJ2qNlqnj-84" value="" style="edgeStyle=orthogonalEdgeStyle;rounded=0;orthogonalLoop=1;jettySize=auto;html=1;" edge="1" parent="WIyWlLk6GJQsqaUBKTNV-1" source="njpOqQqMFgtQJ2qNlqnj-85" target="njpOqQqMFgtQJ2qNlqnj-87">
          <mxGeometry relative="1" as="geometry" />
        </mxCell>
        <mxCell id="njpOqQqMFgtQJ2qNlqnj-85" value="Input setor" style="shape=parallelogram;html=1;strokeWidth=2;perimeter=parallelogramPerimeter;whiteSpace=wrap;rounded=1;arcSize=12;size=0.23;" vertex="1" parent="WIyWlLk6GJQsqaUBKTNV-1">
          <mxGeometry x="1093.5" y="215" width="100" height="40" as="geometry" />
        </mxCell>
        <mxCell id="njpOqQqMFgtQJ2qNlqnj-86" value="" style="edgeStyle=orthogonalEdgeStyle;rounded=0;orthogonalLoop=1;jettySize=auto;html=1;" edge="1" parent="WIyWlLk6GJQsqaUBKTNV-1" source="njpOqQqMFgtQJ2qNlqnj-87" target="njpOqQqMFgtQJ2qNlqnj-89">
          <mxGeometry relative="1" as="geometry" />
        </mxCell>
        <mxCell id="njpOqQqMFgtQJ2qNlqnj-175" value="" style="edgeStyle=orthogonalEdgeStyle;rounded=0;orthogonalLoop=1;jettySize=auto;html=1;" edge="1" parent="WIyWlLk6GJQsqaUBKTNV-1" source="njpOqQqMFgtQJ2qNlqnj-87" target="njpOqQqMFgtQJ2qNlqnj-174">
          <mxGeometry relative="1" as="geometry" />
        </mxCell>
        <mxCell id="njpOqQqMFgtQJ2qNlqnj-87" value="setor &amp;gt; 0" style="strokeWidth=2;html=1;shape=mxgraph.flowchart.decision;whiteSpace=wrap;" vertex="1" parent="WIyWlLk6GJQsqaUBKTNV-1">
          <mxGeometry x="1093.5" y="295" width="100" height="40" as="geometry" />
        </mxCell>
        <mxCell id="njpOqQqMFgtQJ2qNlqnj-88" value="" style="edgeStyle=orthogonalEdgeStyle;rounded=0;orthogonalLoop=1;jettySize=auto;html=1;" edge="1" parent="WIyWlLk6GJQsqaUBKTNV-1" source="njpOqQqMFgtQJ2qNlqnj-89" target="njpOqQqMFgtQJ2qNlqnj-90">
          <mxGeometry relative="1" as="geometry" />
        </mxCell>
        <mxCell id="njpOqQqMFgtQJ2qNlqnj-89" value="saldo += setor" style="rounded=1;whiteSpace=wrap;html=1;absoluteArcSize=1;arcSize=14;strokeWidth=2;" vertex="1" parent="WIyWlLk6GJQsqaUBKTNV-1">
          <mxGeometry x="1103.5" y="375" width="80" height="40" as="geometry" />
        </mxCell>
        <mxCell id="njpOqQqMFgtQJ2qNlqnj-103" value="" style="edgeStyle=orthogonalEdgeStyle;rounded=0;orthogonalLoop=1;jettySize=auto;html=1;" edge="1" parent="WIyWlLk6GJQsqaUBKTNV-1" source="njpOqQqMFgtQJ2qNlqnj-90" target="njpOqQqMFgtQJ2qNlqnj-102">
          <mxGeometry relative="1" as="geometry" />
        </mxCell>
        <mxCell id="njpOqQqMFgtQJ2qNlqnj-90" value="Saldo saat ini" style="shape=parallelogram;html=1;strokeWidth=2;perimeter=parallelogramPerimeter;whiteSpace=wrap;rounded=1;arcSize=12;size=0.23;" vertex="1" parent="WIyWlLk6GJQsqaUBKTNV-1">
          <mxGeometry x="1091" y="455" width="105" height="40" as="geometry" />
        </mxCell>
        <mxCell id="njpOqQqMFgtQJ2qNlqnj-102" value="Return" style="strokeWidth=2;html=1;shape=mxgraph.flowchart.start_1;whiteSpace=wrap;" vertex="1" parent="WIyWlLk6GJQsqaUBKTNV-1">
          <mxGeometry x="1103.5" y="525" width="80" height="40" as="geometry" />
        </mxCell>
        <mxCell id="njpOqQqMFgtQJ2qNlqnj-160" value="Return" style="strokeWidth=2;html=1;shape=mxgraph.flowchart.start_1;whiteSpace=wrap;" vertex="1" parent="WIyWlLk6GJQsqaUBKTNV-1">
          <mxGeometry x="1368" y="560" width="80" height="40" as="geometry" />
        </mxCell>
        <mxCell id="njpOqQqMFgtQJ2qNlqnj-171" style="edgeStyle=orthogonalEdgeStyle;rounded=0;orthogonalLoop=1;jettySize=auto;html=1;exitX=1;exitY=0.5;exitDx=0;exitDy=0;exitPerimeter=0;entryX=0;entryY=0.5;entryDx=0;entryDy=0;" edge="1" parent="WIyWlLk6GJQsqaUBKTNV-1" source="njpOqQqMFgtQJ2qNlqnj-164" target="njpOqQqMFgtQJ2qNlqnj-46">
          <mxGeometry relative="1" as="geometry">
            <Array as="points">
              <mxPoint x="119" y="1110" />
              <mxPoint x="40" y="1110" />
              <mxPoint x="40" y="715" />
            </Array>
          </mxGeometry>
        </mxCell>
        <mxCell id="njpOqQqMFgtQJ2qNlqnj-164" value="Setor" style="strokeWidth=2;html=1;shape=mxgraph.flowchart.start_2;whiteSpace=wrap;direction=south;" vertex="1" parent="WIyWlLk6GJQsqaUBKTNV-1">
          <mxGeometry x="78" y="1000" width="82" height="80" as="geometry" />
        </mxCell>
        <mxCell id="njpOqQqMFgtQJ2qNlqnj-170" style="edgeStyle=orthogonalEdgeStyle;rounded=0;orthogonalLoop=1;jettySize=auto;html=1;exitX=1;exitY=0.5;exitDx=0;exitDy=0;exitPerimeter=0;entryX=0;entryY=0.5;entryDx=0;entryDy=0;" edge="1" parent="WIyWlLk6GJQsqaUBKTNV-1" source="njpOqQqMFgtQJ2qNlqnj-166" target="njpOqQqMFgtQJ2qNlqnj-46">
          <mxGeometry relative="1" as="geometry">
            <Array as="points">
              <mxPoint x="525" y="1110" />
              <mxPoint x="40" y="1110" />
              <mxPoint x="40" y="715" />
            </Array>
          </mxGeometry>
        </mxCell>
        <mxCell id="njpOqQqMFgtQJ2qNlqnj-166" value="Tarik Tunai" style="strokeWidth=2;html=1;shape=mxgraph.flowchart.start_2;whiteSpace=wrap;direction=south;" vertex="1" parent="WIyWlLk6GJQsqaUBKTNV-1">
          <mxGeometry x="484" y="1000" width="82" height="80" as="geometry" />
        </mxCell>
        <mxCell id="njpOqQqMFgtQJ2qNlqnj-173" value="" style="edgeStyle=orthogonalEdgeStyle;rounded=0;orthogonalLoop=1;jettySize=auto;html=1;" edge="1" parent="WIyWlLk6GJQsqaUBKTNV-1" source="njpOqQqMFgtQJ2qNlqnj-172" target="njpOqQqMFgtQJ2qNlqnj-85">
          <mxGeometry relative="1" as="geometry" />
        </mxCell>
        <mxCell id="njpOqQqMFgtQJ2qNlqnj-172" value="Setor" style="strokeWidth=2;html=1;shape=mxgraph.flowchart.start_2;whiteSpace=wrap;direction=south;" vertex="1" parent="WIyWlLk6GJQsqaUBKTNV-1">
          <mxGeometry x="1101.5" y="95" width="82" height="80" as="geometry" />
        </mxCell>
        <mxCell id="njpOqQqMFgtQJ2qNlqnj-174" value="Setor Tidak&amp;nbsp;&lt;div&gt;Valid&lt;/div&gt;" style="shape=parallelogram;html=1;strokeWidth=2;perimeter=parallelogramPerimeter;whiteSpace=wrap;rounded=1;arcSize=12;size=0.23;" vertex="1" parent="WIyWlLk6GJQsqaUBKTNV-1">
          <mxGeometry x="1221" y="285" width="100" height="60" as="geometry" />
        </mxCell>
        <mxCell id="njpOqQqMFgtQJ2qNlqnj-176" style="edgeStyle=orthogonalEdgeStyle;rounded=0;orthogonalLoop=1;jettySize=auto;html=1;exitX=0.5;exitY=1;exitDx=0;exitDy=0;entryX=1;entryY=0.5;entryDx=0;entryDy=0;entryPerimeter=0;" edge="1" parent="WIyWlLk6GJQsqaUBKTNV-1" source="njpOqQqMFgtQJ2qNlqnj-174" target="njpOqQqMFgtQJ2qNlqnj-102">
          <mxGeometry relative="1" as="geometry" />
        </mxCell>
        <mxCell id="njpOqQqMFgtQJ2qNlqnj-177" value="Saldo Tidak Mencukupi atau Jumlah tarik tidak valid" style="shape=parallelogram;html=1;strokeWidth=2;perimeter=parallelogramPerimeter;whiteSpace=wrap;rounded=1;arcSize=12;size=0.23;" vertex="1" parent="WIyWlLk6GJQsqaUBKTNV-1">
          <mxGeometry x="1510" y="290" width="116" height="80" as="geometry" />
        </mxCell>
        <mxCell id="njpOqQqMFgtQJ2qNlqnj-179" style="edgeStyle=orthogonalEdgeStyle;rounded=0;orthogonalLoop=1;jettySize=auto;html=1;exitX=0.5;exitY=1;exitDx=0;exitDy=0;entryX=1;entryY=0.5;entryDx=0;entryDy=0;entryPerimeter=0;" edge="1" parent="WIyWlLk6GJQsqaUBKTNV-1" source="njpOqQqMFgtQJ2qNlqnj-177" target="njpOqQqMFgtQJ2qNlqnj-160">
          <mxGeometry relative="1" as="geometry" />
        </mxCell>
        <mxCell id="njpOqQqMFgtQJ2qNlqnj-181" value="" style="edgeStyle=orthogonalEdgeStyle;rounded=0;orthogonalLoop=1;jettySize=auto;html=1;" edge="1" parent="WIyWlLk6GJQsqaUBKTNV-1" source="njpOqQqMFgtQJ2qNlqnj-180" target="njpOqQqMFgtQJ2qNlqnj-68">
          <mxGeometry relative="1" as="geometry" />
        </mxCell>
        <mxCell id="njpOqQqMFgtQJ2qNlqnj-180" value="Tarik Tunai" style="strokeWidth=2;html=1;shape=mxgraph.flowchart.start_2;whiteSpace=wrap;direction=south;" vertex="1" parent="WIyWlLk6GJQsqaUBKTNV-1">
          <mxGeometry x="1367" y="90" width="82" height="80" as="geometry" />
        </mxCell>
      </root>
    </mxGraphModel>
  </diagram>
</mxfile>
